# xmcd
#
# Track frame offsets:
#	150
#	17211
#	31996
#	51987
#	67683
#	81038
#	100501
#	115671
#	136901
#	153506
#	173297
#	182996
#	209552
#	225420
#	242599
#
# Disc length: 3456 seconds
#
# Revision: 0
# Processed by: cddbd v1.5.2PL0 Copyright (c) Steve Scherf et al.
# Submitted via: audiograbber 1.83.01
#
DISCID=b30d7e0f
DTITLE=Various Artist - Countrynale Bergheim 2016
DYEAR=2016
DGENRE=Country
TTITLE0=Jill Fisher - Suds In The Bucket
TTITLE1=Barry P. Foley - Texas Has Got It
TTITLE2=Mark Merritt Band - Darling
TTITLE3=The Pitcher Boy - Swinging Doors
TTITLE4=Elke Brooks - Brand New Day
TTITLE5=Danny June Smith - Until You
TTITLE6=CountryBell - My Turn
TTITLE7=Jamestown Ferry - Guardian Angels
TTITLE8=Rangers - For All Eternity
TTITLE9=Adam and Brooks - You Are The Reason
TTITLE10=Memphis Hobos - Down By The Cotton Shed
TTITLE11=Mike O´Donoghue - Dancing on Wheels
TTITLE12=East Of Memphis - She's Coming Home
TTITLE13=Rebel Bunch - Stand Up
TTITLE14=Jay Wagner - Daddy And Me
EXTD=
EXTT0=
EXTT1=
EXTT2=
EXTT3=
EXTT4=
EXTT5=
EXTT6=
EXTT7=
EXTT8=
EXTT9=
EXTT10=
EXTT11=
EXTT12=
EXTT13=
EXTT14=
PLAYORDER=
